<svg xmlns="http://www.w3.org/2000/svg" width="2000" height="1000" viewBox="0 0 2000 1000"><title>header_landing_2_Plan de travail 1 copie 2</title><rect x="1907.97" y="144.97" width="77.06" height="77.06" rx="15" transform="translate(144.39 -574.75) rotate(17.43)" style="fill:#6b54bf"/><rect x="117.43" y="159.64" width="46.57" height="46.57" rx="9" transform="translate(-57.38 64.51) rotate(-21.56)" style="fill:#fdc553"/><rect x="144.44" y="129.65" width="94.56" height="94.56" rx="9" transform="translate(-27.28 35.15) rotate(-9.78)" style="fill:#6b54bf"/><rect x="1935.13" y="195.13" width="44.75" height="44.75" rx="10" transform="matrix(0.76, 0.65, -0.65, 0.76, 602.82, -1212.17)" style="fill:#fdc553"/><rect x="1406.21" y="143.71" width="41.79" height="41.79" rx="8" transform="translate(215.07 935.78) rotate(-39.05)" style="fill:#fdc553"/><rect x="189.82" y="935.82" width="29.35" height="29.35" rx="6" transform="translate(-762.78 852.35) rotate(-72.06)" style="fill:#fdc553"/><rect x="105.07" y="866.75" width="38.83" height="38.83" rx="10" transform="translate(-112.78 23.33) rotate(-7.38)" style="fill:#6b54bf"/><rect x="1741.13" y="905.13" width="44.75" height="44.75" rx="10" transform="translate(849.92 -843.25) rotate(34.97)" style="fill:#fdc553"/><rect x="1855.25" y="847.56" width="15.48" height="15.48" rx="4" transform="translate(2389.28 -1125.94) rotate(80.22)" style="fill:#6b54bf"/></svg>