<svg xmlns="http://www.w3.org/2000/svg" width="720" height="360" viewBox="0 0 720 360">
  <g fill="none" fill-rule="evenodd" transform="translate(22)">
    <polygon fill="#CFD6E6" fill-rule="nonzero" points="347.114 54.523 358.756 97.874 378.476 98.23 385.841 118.421 429.082 137.424 423.736 57.729"/>
    <polygon fill="#BAC0CF" fill-rule="nonzero" points="385.841 118.421 411.025 95.498 425.281 129.229 410.55 129.229"/>
    <path fill="#0F141F" fill-rule="nonzero" d="M316.822116,183.863531 C311.120031,184.219842 305.061565,189.92082 303.51725,191.464835 C303.16087,191.821146 303.042077,192.296227 303.042077,192.771309 L303.873631,197.878435 C303.873631,198.234746 304.230011,198.353517 304.586391,198.353517 L305.655532,198.115976 L310.05089,225.076851 C310.169683,225.908244 310.882444,226.383326 311.713998,226.264555 L321.455061,224.839311 C322.286615,224.72054 322.761788,224.007918 322.761788,223.176525 L318.485224,185.170005 C318.366431,184.338612 317.65367,183.74476 316.822116,183.863531 Z"/>
    <ellipse cx="334.474" cy="107.045" fill="#FA7864" fill-rule="nonzero" rx="4.989" ry="3.207" transform="rotate(-67.132 334.474 107.045)"/>
    <ellipse cx="314.778" cy="111.15" fill="#FA7864" fill-rule="nonzero" rx="3.207" ry="4.988" transform="rotate(-38.712 314.778 111.15)"/>
    <path fill="#FFA078" fill-rule="nonzero" d="M386.197488,164.979041 L391.899573,177.44993 L420.41,185.288775 L419.816033,193.365161 C419.816033,193.365161 402.590983,194.671635 396.057344,194.790405 C389.523704,194.909176 383.584032,194.671635 378.713501,188.733116 C373.84297,182.794597 365.408635,169.729856 365.408635,169.729856 L386.197488,164.979041 Z"/>
    <path fill="#EB7B63" fill-rule="nonzero" d="M396.294931,194.671635 C402.947363,194.552864 419.816033,193.24639 419.816033,193.24639 L420.41,185.170005 L402.82857,180.41919 L396.294931,194.671635 Z"/>
    <polygon fill="#DCE4F5" fill-rule="nonzero" points="275.482 236.835 275.482 213.794 286.53 194.672 275.007 140.275 273.938 140.275 284.154 194.672 273.463 213.794 273.463 238.26"/>
    <polygon fill="#CFD6E6" fill-rule="nonzero" points="239.725 256.907 273.225 233.51 295.439 233.51 267.642 256.907"/>
    <polygon fill="#BAC0CF" fill-rule="nonzero" points="295.439 233.51 309.813 260.352 309.813 273.773 269.305 273.773 267.642 256.907"/>
    <polygon fill="#BAC0CF" fill-rule="nonzero" points="311.714 241.823 327.751 287.313 307.556 306.316 281.303 282.562 277.977 274.129"/>
    <polygon fill="#CFD6E6" fill-rule="nonzero" points="272.275 260.589 301.617 240.398 311.714 241.823 281.303 271.516"/>
    <polygon fill="#BAC0CF" fill-rule="nonzero" points="276.789 264.746 301.617 244.912 279.64 269.616"/>
    <path fill="#505D7F" fill-rule="nonzero" d="M315.277801,206.192361 L312.901933,302.633908 L335.710274,302.633908 C339.274077,277.929669 343.669435,241.585934 344.976163,224.364229 L346.28289,223.770377 L364.101907,302.633908 L384.771966,292.894737 L371.704688,196.690731 L315.277801,206.192361 Z"/>
    <g fill="#424D69" fill-rule="nonzero" transform="translate(312.427 261.42)">
      <path d="M68.3062305 1.0689334C60.8222435 8.43269679 53.3382565 13.4210526 46.2106499 16.8653936L51.6751483 41.3320913 72.3452076 31.5929204 68.3062305 1.0689334zM26.0157643 22.3288309C15.3243543 23.2789939 6.53363944 21.1411272 1.069141 19.1220307L.475173778 41.0945505 23.2835151 41.0945505C24.2338627 35.3935724 25.0654168 28.9799721 26.0157643 22.3288309z"/>
    </g>
    <path fill="#FFA078" fill-rule="nonzero" d="M317.059703,125.428505 L311.713998,93.8355845 L330.720949,89.0847694 L337.254589,121.984164 L321.811441,128.160224 C319.791952,128.991616 317.416083,127.685142 317.059703,125.428505 Z"/>
    <path fill="#0F141F" fill-rule="nonzero" d="M313.85228,106.068933 L316.346942,102.030741 L333.453198,102.268281 C333.453198,102.268281 334.284753,95.4983698 331.43371,93.1229623 C328.701461,90.7475547 311.713998,99.2990219 311.713998,99.2990219 C311.713998,99.2990219 311.120031,102.505822 313.85228,106.068933 Z"/>
    <path fill="#4B8EF4" fill-rule="nonzero" d="M309.932096,101.318118 L308.981749,88.1346064 C308.862955,86.2342804 310.288477,84.6902655 312.189172,84.6902655 L319.316779,84.6902655 C320.148333,84.6902655 320.861093,84.4527247 321.455061,83.8588728 L325.256451,80.5333023 C326.919559,79.1080578 329.533015,79.7019096 330.364569,81.7210061 L335.353894,94.310666 L309.932096,101.318118 Z"/>
    <path fill="#3D76CC" fill-rule="nonzero" d="M328.701461,96.2109921 L335.472687,94.310666 L330.483362,81.7210061 C329.651808,79.7019096 327.038352,78.9892874 325.375244,80.5333023 L321.573854,83.8588728 L325.494038,82.5523987 C326.325592,82.3148579 327.157146,82.7899395 327.275939,83.7401025 L328.701461,96.2109921 Z"/>
    <polygon fill="#0F141F" fill-rule="nonzero" points="309.932 101.318 335.48 94.355 333.579 89.486 309.576 95.736"/>
    <path fill="#4B8EF4" fill-rule="nonzero" d="M331.07733,131.723335 C321.811441,133.38612 306.130706,140.037261 301.854142,142.65021 C297.577578,145.263158 285.104267,171.392641 285.104267,171.392641 C291.043939,175.312063 297.102404,179.350256 303.279664,183.388449 L309.932096,174.12436 L314.565041,201.916628 C333.096818,201.204006 352.935323,199.184909 371.823481,191.346064 L369.091232,170.204937 L385.009553,159.871914 C385.009553,159.871914 372.655035,131.248253 369.922786,129.823009 C366.95295,128.397764 340.343218,130.17932 331.07733,131.723335 Z"/>
    <path fill="#3D76CC" fill-rule="nonzero" d="M309.813303,174.12436 L308.150195,160.109455 C308.031401,159.515603 307.556228,159.040522 306.843467,159.040522 C306.2495,159.040522 305.774326,159.396833 305.655532,159.990685 L301.616555,176.974849 L305.774326,179.944108 L309.813303,174.12436 Z"/>
    <path fill="#B3B9C7" fill-rule="nonzero" d="M337.373382,154.646018 C339.630458,170.561248 341.887533,185.645086 342.362707,199.30368 L343.907022,199.066139 C343.194261,185.645086 341.174772,170.323707 338.68011,154.289707 L337.373382,154.646018 Z"/>
    <path fill="#3D76CC" fill-rule="nonzero" d="M368.972438,170.204937 C368.378471,162.841174 367.190537,155.121099 365.527428,147.401025 C365.408635,146.925943 365.646222,146.332091 366.121396,146.094551 C366.715363,145.738239 367.546917,145.85701 367.903297,146.450862 L378.594707,164.622729 L368.972438,170.204937 Z"/>
    <path fill="#FFA078" fill-rule="nonzero" d="M322.167821,122.221705 L323.474549,132.198416 C323.593343,133.148579 323.830929,133.979972 324.306103,134.811365 L336.541828,154.764788 C337.135795,155.833721 338.68011,155.47741 338.798903,154.289707 C339.392871,146.688402 339.630458,139.205869 339.392871,131.960876 C339.511664,131.129483 339.392871,130.29809 339.155284,129.466698 L335.2351,112.601304 L322.167821,122.221705 Z"/>
    <path fill="#3B77D1" fill-rule="nonzero" d="M368.972438,170.204937 L383.702825,157.021425 C384.296793,156.546344 385.24714,156.665114 385.603521,157.377736 C386.672662,159.753144 387.623009,162.128551 388.098183,164.7415 C388.216976,165.216581 387.860596,165.691663 387.504216,165.929204 L369.685199,175.074523 L368.972438,170.204937 Z"/>
    <path fill="#505D7F" fill-rule="nonzero" d="M348.896346,129.823009 C350.559454,159.634374 339.155284,177.687471 312.901933,192.414998 L313.85228,197.997205 C339.868044,185.170005 357.568268,165.572892 354.123258,129.585468 C352.222563,128.397764 350.559454,128.635305 348.896346,129.823009 Z"/>
    <path fill="#0F141F" fill-rule="nonzero" d="M322.999375 127.685142L331.671297 124.00326C332.146471 123.76572 332.621644 124.122031 332.621644 124.597112 332.621644 124.834653 332.502851 124.953423 332.384057 125.072194L323.593343 131.367024 322.999375 127.685142zM323.118169 104.406148L323.355756 111.057289 323.474549 114.264089C323.474549 114.38286 323.593343 114.38286 323.712136 114.38286L324.54369 114.145319 326.206798 113.789008C326.325592 113.789008 326.563179 113.907778 326.563179 114.026549 326.563179 114.145319 326.444385 114.38286 326.325592 114.38286L324.781277 114.857941 323.949723 115.095482C323.474549 115.214252 322.999375 114.976712 322.880582 114.50163 322.761788 114.264089 322.880582 114.145319 322.761788 114.026549L322.761788 113.670238 322.642995 112.838845 322.524202 111.17606 321.930234 104.524918C321.930234 104.168607 322.167821 103.931067 322.524202 103.812296 322.761788 103.812296 322.999375 104.049837 323.118169 104.406148 323.118169 104.406148 323.118169 104.406148 323.118169 104.406148zM321.692647 117.945971L328.463874 116.283186C328.582667 116.283186 328.820254 116.401956 328.820254 116.520727 328.820254 116.639497 328.820254 116.877038 328.582667 116.877038L321.811441 118.777364C321.573854 118.896134 321.336267 118.658593 321.217474 118.421053 321.09868 118.183512 321.455061 118.064741 321.692647 117.945971 321.573854 117.945971 321.692647 117.945971 321.692647 117.945971z"/>
    <path stroke="#0F141F" stroke-linecap="round" stroke-linejoin="round" stroke-width=".619" d="M324.662484,119.371216 L326.088005,118.896134"/>
    <ellipse cx="318.618" cy="110.113" fill="#0F141F" fill-rule="nonzero" rx="1" ry="1.544" transform="rotate(-3.285 318.618 110.113)"/>
    <ellipse cx="329.785" cy="107.498" fill="#0F141F" fill-rule="nonzero" rx="1" ry="1.544" transform="rotate(-3.285 329.785 107.498)"/>
    <path stroke="#4B8EF4" stroke-width="1.947" d="M303.398457,101.318118 C304.467598,102.149511 305.893119,102.387052 307.199847,102.030741 L336.932982,93.8215501 C338.59609,93.3464686 339.784025,92.0399945 340.140405,90.3772092"/>
    <path fill="#0F141F" fill-rule="nonzero" d="M315.159008 109.394504C316.346942 108.919422 317.534877 108.681882 318.841605 108.444341 320.029539 108.2068 321.336267 107.969259 322.524202 107.731719 322.761788 107.731719 322.880582 107.850489 322.880582 107.969259 322.880582 108.08803 322.761788 108.325571 322.642995 108.325571 321.455061 108.800652 320.267126 109.038193 318.960398 109.394504 317.772464 109.632045 316.465736 109.988356 315.277801 110.107126 315.040215 110.107126 314.921421 109.988356 314.921421 109.750815 314.921421 109.632045 315.040215 109.394504 315.159008 109.394504zM326.800766 106.544015C327.63232 106.187704 328.582667 105.950163 329.533015 105.712622 330.483362 105.475082 331.314916 105.356311 332.265264 105.237541 332.502851 105.237541 332.621644 105.356311 332.621644 105.593852 332.621644 105.712622 332.502851 105.831393 332.384057 105.950163 331.552503 106.306474 330.602156 106.544015 329.651808 106.781556 328.701461 107.019096 327.869907 107.137867 326.919559 107.256637 326.681972 107.256637 326.563179 107.137867 326.563179 106.900326 326.563179 106.781556 326.563179 106.662785 326.800766 106.544015zM314.089867 202.272939C313.85228 203.698184 314.20866 205.360969 314.446247 206.311132 314.565041 206.786213 315.040215 207.142524 315.515388 207.023754 335.2351 205.004658 353.17291 202.272939 372.179861 197.640894 372.536242 197.522124 372.892622 197.284583 372.892622 196.928272 373.130209 195.978109 373.486589 193.840242 372.298655 191.702375 372.061068 191.227294 371.585894 191.108524 371.11072 191.227294 352.697736 196.21565 333.571992 199.778761 314.921421 201.441546 314.446247 201.441546 314.089867 201.797857 314.089867 202.272939z"/>
    <path fill="#424D69" fill-rule="nonzero" d="M341.055979,222.226362 C343.907022,222.582673 346.876858,222.582673 349.7279,222.226362 C350.321868,222.107592 350.797041,222.582673 350.797041,223.057755 C350.797041,223.414066 350.559454,223.889148 350.084281,223.889148 C346.995651,224.72054 343.788228,224.72054 340.699599,223.889148 C340.343218,223.770377 339.986838,223.414066 339.986838,223.057755 C339.986838,222.582673 340.462012,222.107592 341.055979,222.226362 Z"/>
    <polygon fill="#0F141F" fill-rule="nonzero" points="348.302 147.282 353.886 148.589 352.935 153.933 347.114 152.627"/>
    <path fill="#3B77D1" fill-rule="nonzero" d="M323.830929 133.504891L319.791952 133.861202C319.554365 133.861202 319.435572 134.098742 319.316779 134.217513L318.604018 137.780624C318.604018 138.018165 318.722811 138.255706 318.960398 138.374476L323.830929 139.56218 321.692647 148.469958C321.455061 149.657662 322.049028 150.845366 323.236962 151.082906L336.660621 154.764788 323.830929 133.504891zM339.274077 129.347927L342.956674 127.685142C343.194261 127.566372 343.431848 127.685142 343.550641 127.803912L345.92651 130.535631C346.164097 130.773172 346.045304 131.010713 345.92651 131.248253L342.243913 134.692594 348.539966 141.343735C349.37152 142.175128 349.37152 143.600373 348.539966 144.431765L338.798903 154.289707 339.274077 129.347927z"/>
    <path fill="#CFD6E6" fill-rule="nonzero" d="M681.993164 263.202143L659.06603 263.202143 659.06603 302.040056 607.747262 302.040056 607.747262 263.202143 510.574224 263.202143 510.574224 217.238007 598.243786 79.3455985 659.06603 79.3455985 659.06603 213.674895 681.993164 213.674895 681.993164 263.202143zM563.674894 213.793666L607.866055 213.793666 607.866055 143.125291 563.674894 213.793666zM172.012907 263.202143L149.085773 263.202143 149.085773 302.040056 97.7670047 302.040056 97.7670047 263.202143.593967222 263.202143.593967222 217.238007 88.2635292 79.3455985 149.085773 79.3455985 149.085773 213.674895 172.012907 213.674895 172.012907 263.202143zM53.5758434 213.793666L97.7670047 213.793666 97.7670047 143.125291 53.5758434 213.793666z"/>
    <path fill="#DCE4F5" fill-rule="nonzero" d="M415.539469,238.497904 C415.539469,238.497904 406.867547,215.693992 402.47219,214.981369 C398.076832,214.149977 403.541331,235.172333 403.541331,235.172333 C403.541331,235.172333 393.325094,211.061947 387.623009,210.230554 C381.920924,209.399162 393.443888,242.061015 393.443888,242.061015 C393.443888,242.061015 388.573357,235.291104 384.177999,233.390778 C379.782642,231.371681 383.108858,250.374942 391.78078,263.795994 C400.452701,277.217047 415.539469,238.497904 415.539469,238.497904 Z"/>
    <path fill="#CFD6E6" fill-rule="nonzero" d="M336.779415,359.88123 C258.019361,359.88123 190.544685,292.419655 190.544685,179.944108 C190.544685,67.4685608 258.019361,0.00698649278 336.779415,0.00698649278 C415.539469,0.00698649278 483.014145,67.4685608 483.014145,179.944108 C483.014145,292.300885 415.539469,359.88123 336.779415,359.88123 Z M336.779415,295.151374 C376.100045,295.151374 415.539469,255.838379 415.539469,179.825338 C415.539469,103.931067 376.218838,64.4993014 336.779415,64.4993014 C297.458785,64.4993014 258.019361,103.812296 258.019361,179.825338 C258.019361,255.719609 297.339991,295.151374 336.779415,295.151374 Z"/>
    <path fill="#DCE4F5" fill-rule="nonzero" d="M209.314049,86.5905915 C209.670429,109.275734 228.202207,127.566372 251.010548,127.566372 C256.475046,127.566372 261.583165,126.497438 266.334902,124.597112 C272.512161,106.662785 281.77805,92.6478808 292.588254,82.6711691 C291.043939,61.0549604 272.987335,44.0707965 251.010548,44.0707965 C244.952082,44.0707965 239.249997,45.3772706 234.023085,47.6339078 C224.51961,58.7983232 216.085275,71.8630647 209.314049,86.5905915 Z" opacity=".66"/>
    <path fill="#FFA078" fill-rule="nonzero" d="M285.935821,170.086167 L281.184083,180.300419 L254.693145,151.557988 L246.377604,160.822077 C246.377604,160.822077 267.998011,192.652538 273.343716,200.016302 C278.689421,207.261295 284.985473,206.311132 290.212385,200.016302 C295.439296,193.721472 302.923283,181.725664 302.923283,181.725664 L285.935821,170.086167 Z"/>
    <path fill="#EB7B63" fill-rule="nonzero" d="M281.77805,180.53796 L278.33304,187.664183 C278.214247,187.782953 277.97666,187.901723 277.857866,187.782953 C277.739073,187.664183 277.62028,187.545412 277.739073,187.307871 L280.827703,179.944108 C280.946496,179.706567 281.302876,179.469027 281.540463,179.706567 C281.77805,179.944108 281.896844,180.181649 281.77805,180.53796 C281.77805,180.53796 281.77805,180.53796 281.77805,180.53796 Z"/>
    <path fill="#FA7864" fill-rule="nonzero" d="M255.524699,137.780624 C257.900568,138.136935 259.801263,137.899395 260.03885,138.849558 C260.276437,139.799721 259.563676,146.450862 258.613328,146.450862 C257.662981,146.569632 254.217971,147.401025 254.336764,145.738239 C254.455558,144.075454 255.524699,137.780624 255.524699,137.780624 Z"/>
    <path fill="#505D7F" fill-rule="nonzero" d="M246.615191,103.574755 L250.535374,182.675827 C250.535374,183.269679 251.010548,183.74476 251.604515,183.74476 L253.030037,183.74476 C253.624004,183.74476 254.099178,183.269679 254.099178,182.675827 L258.256948,102.624592 C258.256948,101.91197 257.662981,101.318118 256.95022,101.436889 L247.446745,102.387052 C246.971571,102.505822 246.615191,102.980904 246.615191,103.574755 Z"/>
    <polygon fill="#0F141F" fill-rule="nonzero" points="249.11 153.933 249.466 160.703 255.406 159.397 256.356 142.65"/>
    <path fill="#FFA078" fill-rule="nonzero" d="M246.971571,161.297159 C245.664843,159.515603 245.070876,139.087098 246.140017,138.018165 C247.209158,136.949231 257.069014,137.661854 257.187807,138.136935 C257.306601,138.493246 257.425394,140.749884 257.187807,141.106195 C256.95022,141.462506 256.59384,141.462506 256.59384,141.462506 C256.59384,141.462506 258.138155,141.462506 258.494535,141.818817 C258.850915,142.175128 258.613328,144.669306 258.375742,145.025617 C258.138155,145.381928 256.356253,145.500699 256.356253,145.500699 C256.356253,145.500699 257.306601,145.500699 257.425394,145.97578 C257.662981,146.925943 257.544187,148.94504 257.306601,149.18258 C256.95022,149.657662 255.999873,149.420121 255.999873,149.420121 C255.999873,149.420121 256.59384,149.420121 256.712633,150.013973 C257.069014,150.964136 256.59384,152.864462 256.23746,153.220773 C255.643492,153.814625 248.991059,154.527247 248.991059,154.527247 L249.34744,159.871914 L246.971571,161.297159 Z"/>
    <polygon fill="#0F141F" fill-rule="nonzero" points="246.734 106.069 258.019 108.919 257.782 114.383 246.972 111.176"/>
    <polygon fill="#0F141F" fill-rule="nonzero" points="247.209 116.877 254.218 110.226 256 111.176 247.447 119.49"/>
    <path fill="#3B77D1" fill-rule="nonzero" d="M287.242549,161.5347 C285.817027,164.028878 284.747886,166.760596 283.916332,169.729856 C283.797539,170.442478 284.035126,171.1551 284.629093,171.511411 L302.923283,183.74476 C303.398457,184.101071 303.992424,183.863531 304.230011,183.388449 L305.061565,181.488123 C305.180359,181.369353 305.299152,181.131812 305.417946,181.013041 L307.199847,179.944108 C307.675021,179.706567 307.793814,178.993945 307.318641,178.518864 L289.856004,161.297159 C289.02445,160.465766 287.717722,160.584537 287.242549,161.5347 Z"/>
    <path fill="#FF4C29" fill-rule="nonzero" d="M249.34744,67.1122497 L242.932594,82.4336283 C241.031899,87.065673 242.932594,92.2915696 247.327951,94.6669772 C250.654168,96.4485328 254.574351,96.2109921 257.544187,93.9543549 C261.583165,90.9850955 262.771099,85.5216581 260.276437,81.2459245 L251.842102,66.9934793 C251.248135,65.9245459 249.70382,66.0433163 249.34744,67.1122497 Z"/>
    <path fill="#FF8B2C" fill-rule="nonzero" d="M253.50521,76.8514206 L257.425394,83.8588728 C258.969709,86.7093619 257.187807,90.1537028 253.861591,90.3912436 C250.654168,90.6287844 248.278299,87.3032138 249.466233,84.3339544 L252.554863,76.970191 C252.911243,76.4951095 253.386417,76.4951095 253.50521,76.8514206 Z"/>
    <path fill="#FF4C29" fill-rule="nonzero" d="M249.228646,81.6022357 L250.178994,83.3837913 C250.416581,83.8588728 251.010548,83.9776432 251.366928,83.8588728 C251.842102,83.6213321 252.079689,83.1462506 251.842102,82.5523987 L249.941407,77.8015836 L249.228646,81.6022357 Z"/>
    <path fill="#FF8B2C" fill-rule="nonzero" d="M248.872266,81.1271542 L251.723309,86.11551 C252.911243,88.1346064 251.485722,90.6287844 249.228646,90.7475547 C246.971571,90.8663251 245.308463,88.6096879 246.140017,86.4718211 L248.278299,81.2459245 C248.278299,80.8896134 248.634679,80.8896134 248.872266,81.1271542 Z"/>
    <path fill="#FF4C29" fill-rule="nonzero" d="M244.001735,69.4876572 C243.407768,69.1313461 243.170181,68.4187238 243.407768,67.8248719 L244.476909,65.5682347 C244.714495,65.0931532 245.308463,64.8556125 245.90243,65.0931532 C246.377604,65.330694 246.615191,65.8057755 246.377604,66.3996274 L245.664843,68.7750349 C245.427256,69.4876572 244.595702,69.8439683 244.001735,69.4876572 Z"/>
    <ellipse cx="252.911" cy="59.036" fill="#FF4C29" fill-rule="nonzero" rx="1.307" ry="1.306"/>
    <ellipse cx="256.356" cy="65.806" fill="#FF8B2C" fill-rule="nonzero" rx="1.782" ry="1.782"/>
    <ellipse cx="239.488" cy="77.683" fill="#FF8B2C" fill-rule="nonzero" rx="1.782" ry="1.782"/>
    <path fill="#FA7864" fill-rule="nonzero" d="M253.742797 141.343735L258.375742 140.749884C258.732122 140.749884 258.969709 140.868654 258.969709 141.224965 258.969709 141.581276 258.850915 141.818817 258.494535 141.818817 258.494535 141.818817 258.494535 141.818817 258.375742 141.818817L253.742797 141.818817C253.624004 141.818817 253.50521 141.700047 253.50521 141.581276 253.50521 141.462506 253.624004 141.343735 253.742797 141.343735zM253.980384 145.619469L258.138155 145.025617C258.494535 145.025617 258.732122 145.144388 258.732122 145.500699 258.732122 145.85701 258.613328 146.094551 258.256948 146.094551 258.256948 146.094551 258.138155 146.094551 258.138155 146.094551L253.861591 145.97578C253.742797 145.97578 253.624004 145.85701 253.624004 145.738239 253.742797 145.738239 253.861591 145.619469 253.980384 145.619469zM253.980384 149.657662L256.475046 149.420121C256.712633 149.420121 256.831427 149.538891 256.831427 149.776432 256.831427 150.013973 256.712633 150.132743 256.475046 150.132743 256.475046 150.132743 256.475046 150.132743 256.475046 150.132743L253.980384 150.132743C253.861591 150.132743 253.742797 150.013973 253.742797 149.895203 253.742797 149.776432 253.861591 149.657662 253.980384 149.657662z"/>
    <polyline stroke="#CFD6E6" stroke-linecap="round" stroke-linejoin="round" stroke-width="1.401" points="459.255 140.275 510.574 170.68 572.228 143.957"/>
    <polyline stroke="#CFD6E6" stroke-linecap="round" stroke-linejoin="round" stroke-width="1.401" points="453.078 193.009 510.574 170.68 544.668 198.116"/>
    <polyline stroke="#CFD6E6" stroke-linecap="round" stroke-linejoin="round" stroke-width="1.401" points="467.69 231.847 510.574 170.68 521.384 211.537"/>
    <path stroke="#CFD6E6" stroke-linecap="round" stroke-linejoin="round" stroke-width="1.401" d="M474.461017 115.689334L510.574224 170.680019M500.001607 163.910107C502.139889 162.959944 503.090237 161.415929 502.733857 158.802981 507.366801 164.028878 517.34545 166.047974 521.265634 165.454122 518.889765 168.06707 517.464244 171.392641 517.583037 175.787145 515.088375 176.737308 513.662854 178.162552 513.068886 179.944108 510.574224 178.043782 508.079562 177.212389 505.347312 177.925012 504.872139 175.668374 502.85265 174.480671 501.189542 174.24313 502.139889 169.729856 501.664716 165.810433 500.001607 163.910107z"/>
    <path stroke="#CFD6E6" stroke-linecap="round" stroke-linejoin="round" stroke-width="1.401" d="M528.987208,162.603633 C525.067024,166.998137 522.572362,172.699115 522.691155,180.300419 C518.414591,181.963204 515.919929,184.338612 514.969581,187.426642 C510.811811,184.101071 506.535247,181.606893 502.021096,182.794597 C501.189542,178.875175 499.526434,176.499767 496.794184,176.024686 C496.912978,168.542152 495.487457,163.197485 492.636414,159.990685 C497.031771,158.090359 499.526434,153.814625 499.526434,153.814625"/>
    <path stroke="#CFD6E6" stroke-linecap="round" stroke-linejoin="round" stroke-width="1.401" d="M536.233608,159.634374 C527.205306,172.936656 528.987208,185.526316 528.987208,185.526316 C523.047536,185.170005 516.63269,193.602701 516.63269,193.602701 C516.63269,193.602701 506.416453,187.664183 496.912978,190.277131 C497.863325,182.675827 491.329686,178.162552 491.329686,178.162552 C491.329686,178.162552 492.51762,166.047974 487.528296,156.902655 C495.24987,153.695855 495.843837,148.113647 495.843837,148.113647 C507.841975,157.615277 521.384427,161.297159 536.233608,159.634374 Z"/>
    <polygon fill="#DCE4F5" fill-rule="nonzero" points="277.977 160.703 266.454 149.895 265.741 150.252 278.214 162.96"/>
    <polygon fill="#DCE4F5" fill-rule="nonzero" points="273.463 213.794 263.009 199.066 263.959 197.997 274.413 212.25"/>
    <path fill="#BAC0CF" fill-rule="nonzero" d="M358.756202 97.8737774L380.020229 71.5067536C380.257816 71.1504425 380.732989 71.0316721 381.208163 71.1504425L406.154786 78.7517466C407.105134 78.9892874 407.223927 80.1769912 406.392373 80.770843L378.832294 98.1113181C378.594707 98.2300885 378.475914 98.2300885 378.238327 98.2300885L358.756202 97.8737774zM392.731127 96.3297625L411.025318 84.9278062C411.500491 84.5714951 412.213252 84.8090359 412.450839 85.2841174L416.252229 92.5291104C416.60861 93.1229623 416.252229 93.8355845 415.539469 93.9543549L393.443888 98.1113181C392.374747 98.4676293 391.78078 96.9236143 392.731127 96.3297625z"/>
    <polygon fill="#CFD6E6" fill-rule="nonzero" points="415.539 146.451 408.293 158.803 411.976 199.304 420.41 208.687"/>
    <polygon fill="#CFD6E6" fill-rule="nonzero" points="401.997 253.582 392.85 251.088 384.772 262.49 392.85 276.386"/>
    <path fill="#BAC0CF" fill-rule="nonzero" d="M309.932096 287.906381L311.595205 271.75361C311.713998 271.040987 311.120031 270.447136 310.40727 270.565906L299.121893 271.516069C298.646719 271.516069 298.290339 271.87238 298.171545 272.347462L292.707047 289.925477C292.46946 290.75687 293.182221 291.469492 294.013775 291.350722L309.219336 288.975314C309.456923 288.856544 309.813303 288.500233 309.932096 287.906381zM288.074103 293.132278L289.618417 289.331626C289.856004 288.737774 289.618417 288.143922 289.02445 287.906381L286.173408 286.718677C285.57944 286.481136 284.985473 286.718677 284.747886 287.312529L283.203571 291.113181C282.965985 291.707033 283.203571 292.300885 283.797539 292.538426L286.648581 293.726129C287.242549 293.96367 287.836516 293.607359 288.074103 293.132278zM401.640636 70.9129017L403.18495 67.1122497C403.422537 66.5183978 403.18495 65.9245459 402.590983 65.6870051L399.73994 64.4993014C399.145973 64.2617606 398.552006 64.4993014 398.314419 65.0931532L396.770104 68.8938053C396.532517 69.4876572 396.770104 70.0815091 397.364072 70.3190498L400.215114 71.5067536C400.690288 71.8630647 401.403049 71.5067536 401.640636 70.9129017zM350.203074 65.8057755L347.470825 55.4727527C347.352031 55.1164415 346.876858 54.9976712 346.639271 55.3539823L340.224425 64.6180717C343.669435 64.9743829 346.995651 65.330694 350.203074 65.8057755z"/>
  </g>
</svg>
