<svg id="Layer_1" data-name="Layer 1" xmlns="http://www.w3.org/2000/svg" viewBox="0 0 154.51 31.82"><defs><style>.cls-1,.cls-2{fill:#434e51;}.cls-2{fill-rule:evenodd;}</style></defs><path class="cls-1" d="M6.05,13.11h6.12l1.37,7.56c.28,1.8.43,3.6.72,5.47h.14c.29-1.87.58-3.74,1-5.47l1.65-7.56h5.26l1.73,7.56c.43,1.8.72,3.6,1.08,5.47h.14c.29-1.87.43-3.67.72-5.47l1.37-7.56h5.69l-4.11,18h-7.2l-1.29-6.26c-.29-1.66-.58-3.31-.87-5.29h-.14c-.29,2-.5,3.63-.79,5.29l-1.23,6.26H10.37Z" transform="translate(-6.05 -6.06)"/><path class="cls-1" d="M55.8,13.11h5l.43,3.1h.15c1.33-2.45,3.34-3.53,5.11-3.53a5.45,5.45,0,0,1,2.23.36l-1,5.33a8.68,8.68,0,0,0-2-.29c-1.3,0-2.88.79-3.75,3v10H55.8Z" transform="translate(-6.05 -6.06)"/><path class="cls-1" d="M70.85,6.06H76.9V19.38H77l5-6.27H88.7L82.3,20.6l6.76,10.51H82.37l-3.6-6.41L76.9,26.79v4.32H70.85Z" transform="translate(-6.05 -6.06)"/><path class="cls-1" d="M88.49,22.11c0-5.83,4.25-9.43,8.64-9.43,5.32,0,7.84,3.89,7.84,8.71a12.72,12.72,0,0,1-.25,2.59H94.46c.58,2.16,2.16,2.88,4.18,2.88a7.41,7.41,0,0,0,3.67-1.08l2,3.68a12.21,12.21,0,0,1-6.55,2.08C92.52,31.54,88.49,28.09,88.49,22.11ZM99.72,20a2.27,2.27,0,0,0-2.45-2.59A2.85,2.85,0,0,0,94.39,20Z" transform="translate(-6.05 -6.06)"/><path class="cls-1" d="M107.28,26c0-3.74,2.88-5.83,9.79-6.55-.14-1.3-.94-1.87-2.52-1.87A9.74,9.74,0,0,0,110,19.09l-2.16-4a15.18,15.18,0,0,1,7.91-2.38c4.68,0,7.49,2.52,7.49,8.42v10h-5l-.43-1.73h-.14a7.29,7.29,0,0,1-5,2.16A5.29,5.29,0,0,1,107.28,26Zm9.79-.43V23.12c-2.95.43-3.89,1.37-3.89,2.38,0,.82.58,1.29,1.66,1.29A2.83,2.83,0,0,0,117.07,25.57Z" transform="translate(-6.05 -6.06)"/><path class="cls-1" d="M125.86,29l2.73-3.81A7.74,7.74,0,0,0,133,27c1.3,0,1.8-.36,1.8-1.08,0-.94-1.65-1.37-3.45-2.09-2.09-.83-4.54-2.38-4.54-5.33,0-3.52,2.88-5.83,7.13-5.83a10.63,10.63,0,0,1,6.62,2.38l-2.73,3.67a6.67,6.67,0,0,0-3.68-1.51c-1,0-1.58.29-1.58,1,0,.93,1.58,1.29,3.38,1.94,2.16.79,4.61,2.16,4.61,5.4s-2.66,6-7.7,6A11.92,11.92,0,0,1,125.86,29Z" transform="translate(-6.05 -6.06)"/><path class="cls-1" d="M143.49,37.52l1.08-4.68a6.26,6.26,0,0,0,1.16.22,2.58,2.58,0,0,0,2.8-1.8l.22-.8-6.84-17.35h6.19L150.26,20c.51,1.65.87,3.31,1.3,5.11h.14c.36-1.73.72-3.39,1.15-5.11l1.8-6.92h5.91l-6.05,17.71c-1.87,4.86-3.82,7.06-8.28,7.06A9.62,9.62,0,0,1,143.49,37.52Z" transform="translate(-6.05 -6.06)"/><path id="_" data-name="ï„" class="cls-2" d="M43,31.33a9.59,9.59,0,0,0,6.89-2.74A8.85,8.85,0,0,0,52.72,22a8.9,8.9,0,0,0-2.86-6.65,10,10,0,0,0-13.78,0A9.12,9.12,0,0,0,34.77,27l.09.09a.14.14,0,0,1,0,.09,1.66,1.66,0,0,1,.18.71l-1,4.12L38,30.58a1.36,1.36,0,0,1,.56-.09,2.64,2.64,0,0,1,.52.09s.05,0,.05,0,0,0,0,0A10.2,10.2,0,0,0,43,31.33ZM37.39,21.2a1.6,1.6,0,0,1,2.16,0A1.48,1.48,0,0,1,40,22.28a1.5,1.5,0,1,1-3,0A1.48,1.48,0,0,1,37.39,21.2Zm4.5,0a1.6,1.6,0,0,1,2.16,0,1.48,1.48,0,0,1,.42,1.08,1.5,1.5,0,1,1-3,0A1.48,1.48,0,0,1,41.89,21.2Zm4.5,0a1.6,1.6,0,0,1,2.16,0A1.48,1.48,0,0,1,49,22.28a1.5,1.5,0,1,1-3,0A1.48,1.48,0,0,1,46.39,21.2Z" transform="translate(-6.05 -6.06)"/></svg>