<svg id="Capa_1" data-name="Capa 1" xmlns="http://www.w3.org/2000/svg" viewBox="0 0 512 512"><defs><style>.cls-1{fill:#a0aec0;}</style></defs><circle class="cls-1" cx="256" cy="378.5" r="25"/><path class="cls-1" d="M256,0C114.52,0,0,114.5,0,256S114.5,512,256,512,512,397.5,512,256,397.5,0,256,0Zm0,472A216,216,0,1,1,472,256,215.88,215.88,0,0,1,256,472Z"/><path class="cls-1" d="M256,128.5a80.09,80.09,0,0,0-80,80,20,20,0,0,0,40,0,40,40,0,1,1,40,40,20,20,0,0,0-20,20v50a20,20,0,0,0,40,0V286A80,80,0,0,0,256,128.5Z"/></svg>